<?xml version="1.0" encoding="UTF-8" standalone="no"?>
<!-- Generator: Adobe Illustrator 23.0.5, SVG Export Plug-In . SVG Version: 6.00 Build 0)  -->

<svg
   version="1.1"
   id="Layer_1"
   x="0px"
   y="0px"
   viewBox="0 0 2344.3001 1885.9"
   xml:space="preserve"
   sodipodi:docname="favicon.svg"
   inkscape:version="1.4.3 (0d15f75042, 2025-12-25)"
   width="2344.3"
   height="1885.9"
   xmlns:inkscape="http://www.inkscape.org/namespaces/inkscape"
   xmlns:sodipodi="http://sodipodi.sourceforge.net/DTD/sodipodi-0.dtd"
   xmlns="http://www.w3.org/2000/svg"
   xmlns:svg="http://www.w3.org/2000/svg"><defs
   id="defs127" /><sodipodi:namedview
   id="namedview127"
   pagecolor="#ffffff"
   bordercolor="#000000"
   borderopacity="0.25"
   inkscape:showpageshadow="2"
   inkscape:pageopacity="0.0"
   inkscape:pagecheckerboard="0"
   inkscape:deskcolor="#d1d1d1"
   inkscape:zoom="0.12633695"
   inkscape:cx="-332.44432"
   inkscape:cy="945.88323"
   inkscape:window-width="1366"
   inkscape:window-height="744"
   inkscape:window-x="0"
   inkscape:window-y="0"
   inkscape:window-maximized="1"
   inkscape:current-layer="Layer_1" />
<style
   type="text/css"
   id="style1">
	.st0{fill-rule:evenodd;clip-rule:evenodd;fill:#FFFFFF;}
	.st1{fill-rule:evenodd;clip-rule:evenodd;fill:#E4F1F8;}
	.st2{fill-rule:evenodd;clip-rule:evenodd;fill:#B6D8F8;}
	.st3{fill-rule:evenodd;clip-rule:evenodd;fill:#D6C5FA;}
	.st4{fill-rule:evenodd;clip-rule:evenodd;fill:#3EA4EB;}
	.st5{fill-rule:evenodd;clip-rule:evenodd;fill:#3C9EE6;}
	.st6{fill-rule:evenodd;clip-rule:evenodd;fill:#CBEAFF;}
	.st7{fill-rule:evenodd;clip-rule:evenodd;fill:#BCE3EF;}
	.st8{fill-rule:evenodd;clip-rule:evenodd;fill:#6771BE;}
	.st9{fill-rule:evenodd;clip-rule:evenodd;fill:#454E9B;}
	.st10{fill-rule:evenodd;clip-rule:evenodd;fill:#121C73;}
	.st11{fill-rule:evenodd;clip-rule:evenodd;fill:#B3BEEF;}
	.st12{fill-rule:evenodd;clip-rule:evenodd;fill:#FF8662;}
	.st13{fill-rule:evenodd;clip-rule:evenodd;fill:#FF9F00;}
	.st14{fill-rule:evenodd;clip-rule:evenodd;fill:#FFAD2B;}
	.st15{fill-rule:evenodd;clip-rule:evenodd;fill:#2B1710;}
	.st16{fill-rule:evenodd;clip-rule:evenodd;fill:#693E2F;}
	.st17{fill-rule:evenodd;clip-rule:evenodd;fill:#255872;}
	.st18{fill-rule:evenodd;clip-rule:evenodd;fill:#FF7A52;}
	.st19{fill-rule:evenodd;clip-rule:evenodd;fill:#FF7557;}
	.st20{fill-rule:evenodd;clip-rule:evenodd;fill:#3090D7;}
	.st21{fill-rule:evenodd;clip-rule:evenodd;fill:#221E54;}
	.st22{fill-rule:evenodd;clip-rule:evenodd;fill:#332A7C;}
	.st23{fill-rule:evenodd;clip-rule:evenodd;fill:#A7CAF6;}
	.st24{fill-rule:evenodd;clip-rule:evenodd;fill:#B1C8EF;}
	.st25{fill-rule:evenodd;clip-rule:evenodd;fill:#1A1840;}
	.st26{fill-rule:evenodd;clip-rule:evenodd;fill:#FF7200;}
	.st27{fill-rule:evenodd;clip-rule:evenodd;fill:#FF5A1F;}
	.st28{fill-rule:evenodd;clip-rule:evenodd;fill:#FCDCB5;}
	.st29{fill-rule:evenodd;clip-rule:evenodd;fill:#FBBD72;}
	.st30{fill-rule:evenodd;clip-rule:evenodd;fill:#A7D2F6;}
	.st31{fill-rule:evenodd;clip-rule:evenodd;fill:#C4DFFA;}
	.st32{fill-rule:evenodd;clip-rule:evenodd;fill:#EAF4FF;}
	.st33{fill-rule:evenodd;clip-rule:evenodd;fill:#89C5F3;}
	.st34{fill-rule:evenodd;clip-rule:evenodd;fill:#D3E9FF;}
</style>




































<polygon
   class="st8"
   points="2300.3,2390.9 2898.8,2390.9 2832.9,2780.7 2234.5,2780.7 "
   id="polygon35"
   transform="translate(-1430.1,-914.1)" />
<polygon
   class="st9"
   points="2341.5,2390.9 2939.9,2390.9 2876.8,2780.7 2278.4,2780.7 "
   id="polygon36"
   transform="translate(-1430.1,-914.1)" />
<path
   class="st9"
   d="M 2196.1,1572.9 H 96.1 C 43.9,1572.9 0,1529 0,1476.8 V 96.1 C 0,43.9 43.9,0 96.1,0 h 2100 c 52.2,0 96.1,43.9 96.1,96.1 v 1383.5 c 0,49.4 -44,93.3 -96.1,93.3 z"
   id="path36" />
<path
   class="st10"
   d="M 2248.2,1572.9 H 145.5 c -52.2,0 -96.1,-43.9 -96.1,-96.1 V 96.1 C 49.4,43.9 93.3,0 145.5,0 h 2102.7 c 52.2,0 96.1,43.9 96.1,96.1 v 1383.5 c -2.7,49.4 -43.9,93.3 -96.1,93.3 z"
   id="path37" />
<path
   class="st6"
   d="M 79.7,1295.7 V 123.5 c 0,-38.4 30.2,-68.6 68.6,-68.6 h 2099.9 c 38.4,0 68.6,30.2 68.6,68.6 v 1172.1 c 0,38.4 -30.2,68.6 -68.6,68.6 H 145.5 c -35.6,0.1 -65.8,-30.1 -65.8,-68.5 z"
   id="path38" />
<path
   class="st10"
   d="M 1638.8,1778.8 H 752.2 c -57.6,0 -107.1,46.7 -107.1,107.1 h 1100.8 c 0,-57.7 -46.7,-107.1 -107.1,-107.1 z"
   id="path39" />





























































<rect
   x="255.39999"
   y="452.89999"
   class="st4"
   width="107.1"
   height="428.20001"
   id="rect94"
   style="fill:#615fff;fill-opacity:1" />
<rect
   x="411.80002"
   y="540.80005"
   class="st4"
   width="107.1"
   height="340.39999"
   id="rect95"
   style="fill:#615fff;fill-opacity:1" />
<rect
   x="565.5"
   y="694.5"
   class="st4"
   width="107.1"
   height="183.89999"
   id="rect96"
   style="fill:#615fff;fill-opacity:1" />
<rect
   x="722.00012"
   y="384.30002"
   class="st4"
   width="107.1"
   height="494.10001"
   id="rect97"
   style="fill:#615fff;fill-opacity:1" />
<rect
   x="875.70007"
   y="172.89999"
   class="st4"
   width="107.1"
   height="708.20001"
   id="rect98"
   style="fill:#615fff;fill-opacity:1" />
<rect
   x="1032.2001"
   y="403.49997"
   class="st4"
   width="107.1"
   height="474.89999"
   id="rect99"
   style="fill:#615fff;fill-opacity:1" />
<rect
   x="1188.7001"
   y="263.49997"
   class="st4"
   width="107.1"
   height="617.59998"
   id="rect100"
   style="fill:#615fff;fill-opacity:1" />
<rect
   x="1342.4"
   y="513.30005"
   class="st4"
   width="107.1"
   height="367.79999"
   id="rect101"
   style="fill:#615fff;fill-opacity:1" />
<path
   class="st3"
   d="m 2058.8,859.2 79.6,-85.1 c 96.1,96.1 115.3,247.1 43.9,367.8 l -96.1,-63.1 c 41.3,-71.4 27.5,-162 -27.4,-219.6 z"
   id="path101" />
<path
   class="st4"
   d="m 1825.5,1139.2 c 82.4,54.9 192.2,32.9 249.8,-43.9 l 96.1,63.1 c -93.3,131.8 -274.5,167.4 -411.8,76.9 -104.3,-68.6 -153.7,-194.9 -129,-310.2 l 112.5,27.5 c -10.9,71.3 19.3,145.4 82.4,186.6 z"
   id="path102"
   style="fill:#615fff;fill-opacity:1" />
<path
   class="st22"
   d="m 1924.3,801.5 c -60.4,0 -118,30.2 -153.7,82.4 -11,16.5 -16.5,30.2 -22,49.4 l -112.5,-27.5 c 8.2,-30.2 22,-57.6 38.4,-85.1 60.4,-90.6 159.2,-137.3 258,-134.5 z"
   id="path103" />
<path
   class="st4"
   d="m 1946.3,801.5 5.5,-115.3 c 46.7,5.5 93.3,19.2 137.3,49.4 11,8.2 22,16.5 32.9,24.7 l -79.6,85.1 c -5.5,-5.5 -11,-8.2 -16.5,-13.7 -24.7,-16.4 -52.2,-24.7 -79.6,-30.2 z"
   id="path104"
   style="fill:#615fff;fill-opacity:1" />
<path
   class="st24"
   d="M 1438.5,1037.6 H 277.3 c -13.7,0 -24.7,-11 -24.7,-24.7 0,-13.7 11,-24.7 24.7,-24.7 h 1161.1 c 13.7,0 24.7,11 24.7,24.7 0.1,13.7 -10.9,24.7 -24.6,24.7 z"
   id="path105" />
<path
   class="st24"
   d="M 1438.5,1150.2 H 277.3 c -13.7,0 -24.7,-11 -24.7,-24.7 0,-13.7 11,-24.7 24.7,-24.7 h 1161.1 c 13.7,0 24.7,11 24.7,24.7 0,13.7 -10.9,24.7 -24.6,24.7 z"
   id="path106" />
<path
   class="st24"
   d="M 1438.5,1262.7 H 277.3 c -13.7,0 -24.7,-11 -24.7,-24.7 0,-13.7 11,-24.7 24.7,-24.7 h 1161.1 c 13.7,0 24.7,11 24.7,24.7 0,13.7 -10.9,24.7 -24.6,24.7 z"
   id="path107" />























</svg>
