<?xml version="1.0" encoding="UTF-8" standalone="no"?>
<!-- Generator: Adobe Illustrator 23.0.5, SVG Export Plug-In . SVG Version: 6.00 Build 0)  -->

<svg
   version="1.1"
   id="Layer_1"
   x="0px"
   y="0px"
   viewBox="0 0 4743.4 3162.3"
   style="enable-background:new 0 0 4743.4 3162.3;"
   xml:space="preserve"
   sodipodi:docname="hero-illustration.svg"
   inkscape:version="1.4.3 (0d15f75042, 2025-12-25)"
   xmlns:inkscape="http://www.inkscape.org/namespaces/inkscape"
   xmlns:sodipodi="http://sodipodi.sourceforge.net/DTD/sodipodi-0.dtd"
   xmlns="http://www.w3.org/2000/svg"
   xmlns:svg="http://www.w3.org/2000/svg"><defs
   id="defs127" /><sodipodi:namedview
   id="namedview127"
   pagecolor="#ffffff"
   bordercolor="#000000"
   borderopacity="0.25"
   inkscape:showpageshadow="2"
   inkscape:pageopacity="0.0"
   inkscape:pagecheckerboard="0"
   inkscape:deskcolor="#d1d1d1"
   inkscape:zoom="0.089333712"
   inkscape:cx="2507.4521"
   inkscape:cy="2110.0657"
   inkscape:window-width="1366"
   inkscape:window-height="744"
   inkscape:window-x="0"
   inkscape:window-y="0"
   inkscape:window-maximized="1"
   inkscape:current-layer="Layer_1" />
<style
   type="text/css"
   id="style1">
	.st0{fill-rule:evenodd;clip-rule:evenodd;fill:#FFFFFF;}
	.st1{fill-rule:evenodd;clip-rule:evenodd;fill:#E4F1F8;}
	.st2{fill-rule:evenodd;clip-rule:evenodd;fill:#B6D8F8;}
	.st3{fill-rule:evenodd;clip-rule:evenodd;fill:#D6C5FA;}
	.st4{fill-rule:evenodd;clip-rule:evenodd;fill:#3EA4EB;}
	.st5{fill-rule:evenodd;clip-rule:evenodd;fill:#3C9EE6;}
	.st6{fill-rule:evenodd;clip-rule:evenodd;fill:#CBEAFF;}
	.st7{fill-rule:evenodd;clip-rule:evenodd;fill:#BCE3EF;}
	.st8{fill-rule:evenodd;clip-rule:evenodd;fill:#6771BE;}
	.st9{fill-rule:evenodd;clip-rule:evenodd;fill:#454E9B;}
	.st10{fill-rule:evenodd;clip-rule:evenodd;fill:#121C73;}
	.st11{fill-rule:evenodd;clip-rule:evenodd;fill:#B3BEEF;}
	.st12{fill-rule:evenodd;clip-rule:evenodd;fill:#FF8662;}
	.st13{fill-rule:evenodd;clip-rule:evenodd;fill:#FF9F00;}
	.st14{fill-rule:evenodd;clip-rule:evenodd;fill:#FFAD2B;}
	.st15{fill-rule:evenodd;clip-rule:evenodd;fill:#2B1710;}
	.st16{fill-rule:evenodd;clip-rule:evenodd;fill:#693E2F;}
	.st17{fill-rule:evenodd;clip-rule:evenodd;fill:#255872;}
	.st18{fill-rule:evenodd;clip-rule:evenodd;fill:#FF7A52;}
	.st19{fill-rule:evenodd;clip-rule:evenodd;fill:#FF7557;}
	.st20{fill-rule:evenodd;clip-rule:evenodd;fill:#3090D7;}
	.st21{fill-rule:evenodd;clip-rule:evenodd;fill:#221E54;}
	.st22{fill-rule:evenodd;clip-rule:evenodd;fill:#332A7C;}
	.st23{fill-rule:evenodd;clip-rule:evenodd;fill:#A7CAF6;}
	.st24{fill-rule:evenodd;clip-rule:evenodd;fill:#B1C8EF;}
	.st25{fill-rule:evenodd;clip-rule:evenodd;fill:#1A1840;}
	.st26{fill-rule:evenodd;clip-rule:evenodd;fill:#FF7200;}
	.st27{fill-rule:evenodd;clip-rule:evenodd;fill:#FF5A1F;}
	.st28{fill-rule:evenodd;clip-rule:evenodd;fill:#FCDCB5;}
	.st29{fill-rule:evenodd;clip-rule:evenodd;fill:#FBBD72;}
	.st30{fill-rule:evenodd;clip-rule:evenodd;fill:#A7D2F6;}
	.st31{fill-rule:evenodd;clip-rule:evenodd;fill:#C4DFFA;}
	.st32{fill-rule:evenodd;clip-rule:evenodd;fill:#EAF4FF;}
	.st33{fill-rule:evenodd;clip-rule:evenodd;fill:#89C5F3;}
	.st34{fill-rule:evenodd;clip-rule:evenodd;fill:#D3E9FF;}
</style>

<path
   class="st1"
   d="M2783.5,277.2c-999.2-93.3-1070.6,474.9-1202.3,798.8c-49.4,120.8-134.5,211.4-222.3,277.2  c-112.5,85.1-247.1,137.3-387,153.7C71.4,1627.8,216.9,2843.9,557.2,2945.4h3593.2C5034.4,1262.7,3779.9,370.6,2783.5,277.2z"
   id="path1" />
<path
   class="st1"
   d="M1059.6,549c-518.8,2.7-658.8,513.3-376.1,798.8C1070.6,1743.1,2141.1,540.8,1059.6,549z"
   id="path2" />
<path
   class="st2"
   d="M2396.4,2950.9c1194.1,0,2160.3,22,2160.3,49.4c0,5.5-54.9,11-153.7,16.5H389.8c-98.8-5.5-153.7-11-153.7-16.5  C236.1,2972.9,1202.3,2950.9,2396.4,2950.9z"
   id="path3" />
<path
   class="st3"
   d="M3801.9,2157.6c2.7,0,5.5-2.7,8.2-5.5c0-2.7,32.9-164.7,104.3-370.6c65.9-189.4,178.4-455.7,343.1-650.6  c2.7-2.7,2.7-8.2,0-8.2c-2.7-2.7-8.2-2.7-8.2,0c-164.7,194.9-277.2,463.9-343.1,656.1c-71.4,205.9-104.3,367.8-104.3,370.6  C3793.6,2152.1,3796.4,2154.9,3801.9,2157.6C3799.1,2157.6,3799.1,2157.6,3801.9,2157.6z"
   id="path4" />
<path
   class="st3"
   d="M4271.3,1043.1c-22,24.7-24.7,90.6-24.7,90.6s65.9-13.7,87.8-35.7c22-24.7,24.7-54.9,8.2-68.6  C4323.4,1012.9,4290.5,1018.4,4271.3,1043.1z"
   id="path5" />
<path
   class="st3"
   d="M4128.5,1122.7c8.2,30.2,60.4,74.1,60.4,74.1s27.5-63.1,19.2-93.3c-8.2-30.2-30.2-52.2-52.2-46.7  C4131.3,1062.3,4120.3,1092.5,4128.5,1122.7z"
   id="path6" />
<path
   class="st3"
   d="M4274,1150.2c-30.2,5.5-76.9,54.9-76.9,54.9s60.4,32.9,90.6,27.5c30.2-5.5,52.2-27.5,49.4-49.4  C4331.7,1158.4,4304.2,1144.7,4274,1150.2z"
   id="path7" />
<path
   class="st3"
   d="M4216.4,1262.7c-30.2,0-85.1,38.4-85.1,38.4s52.2,43.9,85.1,43.9c30.2,0,57.6-16.5,57.6-38.4  C4274,1284.7,4249.3,1265.5,4216.4,1262.7z"
   id="path8" />
<path
   class="st3"
   d="M4158.7,1394.5c-30.2-5.5-93.3,22-93.3,22s43.9,52.2,74.1,57.6c30.2,5.5,60.4-5.5,65.9-27.5  C4210.9,1424.7,4191.7,1400,4158.7,1394.5z"
   id="path9" />
<path
   class="st3"
   d="M4098.3,1523.5c-30.2-8.2-93.3,19.2-93.3,19.2s41.2,52.2,71.4,60.4c30.2,8.2,60.4-2.7,65.9-24.7  C4147.7,1556.4,4128.5,1531.7,4098.3,1523.5z"
   id="path10" />
<path
   class="st3"
   d="M4040.7,1652.5c-30.2-5.5-90.6,24.7-90.6,24.7s43.9,52.2,74.1,57.6c30.2,5.5,60.4-5.5,63.1-30.2  C4092.8,1682.7,4070.9,1658,4040.7,1652.5z"
   id="path11" />
<path
   class="st3"
   d="M4051.7,1232.5c11,30.2,68.6,65.9,68.6,65.9s19.2-65.9,8.2-93.3c-11-30.2-38.4-46.7-57.6-38.4  C4048.9,1172.1,4040.7,1202.3,4051.7,1232.5z"
   id="path12" />
<path
   class="st3"
   d="M3974.8,1364.3c16.5,27.5,82.4,49.4,82.4,49.4s5.5-68.6-13.7-93.3c-16.5-27.5-46.7-38.4-65.9-24.7  C3958.3,1306.6,3955.6,1336.8,3974.8,1364.3z"
   id="path13" />
<path
   class="st3"
   d="M3906.2,1504.3c22,24.7,87.8,35.7,87.8,35.7s-5.5-68.6-24.7-90.6c-22-24.7-52.2-30.2-68.6-16.5  C3881.5,1449.4,3884.2,1482.3,3906.2,1504.3z"
   id="path14" />
<path
   class="st3"
   d="M3848.5,1652.5c24.7,19.2,93.3,19.2,93.3,19.2s-16.5-65.9-41.2-85.1c-24.7-19.2-57.6-19.2-71.4-2.7  C3812.9,1603.1,3823.8,1633.3,3848.5,1652.5z"
   id="path15" />
<path
   class="st4"
   d="M694.5,2846.6c-474.9-417.2-521.6-1152.9-255.3-1180.4S971.7,2198.8,851,2863.1L694.5,2846.6z"
   id="path16"
   style="fill:#6967f7;fill-opacity:1" />
<path
   class="st5"
   d="M447.4,2544.6c63.1,107.1,145.5,211.4,247.1,299.2c32.9,2.7,63.1,8.2,96.1,11  C667,2459.5,546.3,2061.5,422.7,1666.2C230.6,1710.2,219.6,2157.6,447.4,2544.6z"
   id="path17"
   style="fill:#6361ff;fill-opacity:1" />
<path
   class="st6"
   d="M636.8,2890.5c-312.9-63.1-518.8-373.3-409-452.9c109.8-79.6,367.8,98.8,483.1,420L636.8,2890.5z"
   id="path18" />
<path
   class="st7"
   d="M452.9,2821.9c54.9,30.2,118,54.9,183.9,68.6c13.7-5.5,30.2-13.7,43.9-19.2c-151-142.7-307.4-285.5-461.2-428.2  C145.5,2511.7,255.3,2709.3,452.9,2821.9z"
   id="path19" />
<path
   class="st4"
   d="M3941.9,2852.1c474.9-417.2,521.6-1152.9,255.3-1180.4s-532.5,532.5-411.8,1196.8L3941.9,2852.1z"
   id="path20"
   style="fill:#6967f7;fill-opacity:1" />
<path
   class="st5"
   d="M4188.9,2552.9c-63.1,107.1-145.5,211.4-247.1,299.2c-32.9,2.7-63.1,8.2-96.1,11  c123.5-395.3,244.3-793.3,367.8-1188.6C4405.8,1718.4,4416.8,2163.1,4188.9,2552.9z"
   id="path21"
   style="fill:#615fff;fill-opacity:1" />
<path
   class="st6"
   d="M3966.6,2871.3c312.9-63.1,518.8-373.3,411.8-452.9c-109.8-79.6-367.8,98.8-483.1,420L3966.6,2871.3z"
   id="path22" />
<path
   class="st7"
   d="M4150.5,2802.7c-54.9,30.2-118,54.9-183.9,68.6c-13.7-5.5-30.2-13.7-43.9-19.2  c153.7-142.7,307.4-285.5,461.2-428.2C4457.9,2492.5,4348.1,2690.1,4150.5,2802.7z"
   id="path23" />
<path
   class="st3"
   d="M584.7,2736.8c-2.7,0-5.5,0-5.5-2.7c0,0-30.2-109.8-87.8-249.8c-52.2-129-142.7-307.4-263.5-433.7  c-2.7-2.7-2.7-5.5,0-5.5c2.7-2.7,5.5-2.7,5.5,0c120.8,126.3,211.4,307.4,266.3,436.5c57.6,140,87.8,249.8,87.8,249.8  C587.4,2734.1,584.7,2736.8,584.7,2736.8L584.7,2736.8z"
   id="path24" />
<path
   class="st3"
   d="M211.4,1990.1c16.5,16.5,22,60.4,22,60.4s-46.7-5.5-60.4-19.2c-16.5-16.5-19.2-35.7-8.2-46.7  C175.7,1970.9,197.6,1976.4,211.4,1990.1z"
   id="path25" />
<path
   class="st3"
   d="M312.9,2039.6c-2.7,22-38.4,52.2-38.4,52.2s-22-41.2-16.5-63.1c2.7-22,19.2-35.7,35.7-32.9  C307.4,1998.4,318.4,2017.6,312.9,2039.6z"
   id="path26" />
<path
   class="st3"
   d="M214.1,2064.3c22,2.7,54.9,32.9,54.9,32.9s-38.4,24.7-60.4,22c-22-2.7-38.4-16.5-35.7-32.9  C172.9,2072.5,192.2,2061.5,214.1,2064.3z"
   id="path27" />
<path
   class="st3"
   d="M258,2141.1c22-2.7,60.4,22,60.4,22s-32.9,30.2-54.9,32.9c-22,2.7-41.2-8.2-41.2-24.7  C219.6,2157.6,236.1,2143.9,258,2141.1z"
   id="path28" />
<path
   class="st3"
   d="M304.7,2229c22-5.5,63.1,11,63.1,11s-27.5,38.4-49.4,43.9s-41.2,0-46.7-16.5  C269,2250.9,282.7,2234.5,304.7,2229z"
   id="path29" />
<path
   class="st3"
   d="M351.4,2314.1c22-8.2,65.9,8.2,65.9,8.2s-27.5,38.4-46.7,46.7c-22,8.2-41.2,0-46.7-13.7  C318.4,2338.8,329.4,2322.3,351.4,2314.1z"
   id="path30" />
<path
   class="st3"
   d="M395.3,2401.9c22-5.5,63.1,11,63.1,11s-27.5,35.7-49.4,43.9c-22,5.5-41.2-2.7-46.7-16.5  C362.3,2423.9,376.1,2407.4,395.3,2401.9z"
   id="path31" />
<path
   class="st3"
   d="M370.6,2110.9c-5.5,22-43.9,46.7-43.9,46.7s-16.5-43.9-8.2-65.9c5.5-22,24.7-32.9,38.4-30.2  C370.6,2069.8,376.1,2091.7,370.6,2110.9z"
   id="path32" />
<path
   class="st3"
   d="M431,2198.8c-11,19.2-54.9,35.7-54.9,35.7s-5.5-46.7,5.5-65.9c11-19.2,30.2-27.5,43.9-19.2  S439.2,2179.6,431,2198.8z"
   id="path33" />
<path
   class="st3"
   d="M483.1,2292.1c-13.7,16.5-57.6,27.5-57.6,27.5s0-46.7,13.7-63.1c13.7-16.5,32.9-22,46.7-13.7  C496.9,2253.7,496.9,2275.6,483.1,2292.1z"
   id="path34" />
<path
   class="st3"
   d="M529.8,2393.7c-16.5,13.7-63.1,16.5-63.1,16.5s8.2-46.7,24.7-60.4c16.5-13.7,38.4-16.5,49.4-5.5  C549,2358,546.3,2377.2,529.8,2393.7z"
   id="path35" />
<polygon
   class="st8"
   points="2832.9,2780.7 2234.5,2780.7 2300.3,2390.9 2898.8,2390.9 "
   id="polygon35" />
<polygon
   class="st9"
   points="2876.8,2780.7 2278.4,2780.7 2341.5,2390.9 2939.9,2390.9 "
   id="polygon36" />
<path
   class="st9"
   d="M3626.2,2487h-2100c-52.2,0-96.1-43.9-96.1-96.1V1010.2c0-52.2,43.9-96.1,96.1-96.1h2100  c52.2,0,96.1,43.9,96.1,96.1v1383.5C3722.3,2443.1,3678.3,2487,3626.2,2487z"
   id="path36" />
<path
   class="st10"
   d="M3678.3,2487H1575.6c-52.2,0-96.1-43.9-96.1-96.1V1010.2c0-52.2,43.9-96.1,96.1-96.1h2102.7  c52.2,0,96.1,43.9,96.1,96.1v1383.5C3771.7,2443.1,3730.5,2487,3678.3,2487z"
   id="path37" />
<path
   class="st6"
   d="M1509.8,2209.8V1037.6c0-38.4,30.2-68.6,68.6-68.6h2099.9c38.4,0,68.6,30.2,68.6,68.6v1172.1  c0,38.4-30.2,68.6-68.6,68.6H1575.6C1540,2278.4,1509.8,2248.2,1509.8,2209.8z"
   id="path38" />
<path
   class="st10"
   d="M3068.9,2692.9h-886.6c-57.6,0-107.1,46.7-107.1,107.1H3176C3176,2742.3,3129.3,2692.9,3068.9,2692.9z"
   id="path39" />
<path
   class="st6"
   d="M3338,2843.9c-189.4-181.2-194.9-488.6-85.1-494.1s211.4,230.6,151,505.1L3338,2843.9z"
   id="path40" />
<path
   class="st7"
   d="M3239.1,2714.8c24.7,46.7,57.6,90.6,96.1,129c13.7,2.7,27.5,5.5,38.4,5.5c-43.9-167.4-87.8-334.9-131.8-499.6  C3165,2363.5,3151.3,2550.1,3239.1,2714.8z"
   id="path41" />
<path
   class="st6"
   d="M1669,2890.5c260.8-186.7,321.2-551.8,189.4-581.9c-131.8-27.5-296.5,241.6-269,581.9H1669z"
   id="path42" />
<path
   class="st7"
   d="M1809,2750.5c-38.4,52.2-85.1,98.8-140,137.3c-16.5,0-32.9,0-49.4,0c82.4-192.2,164.7-387,247.1-579.2  C1960,2344.3,1943.5,2569.4,1809,2750.5z"
   id="path43" />
<path
   class="st11"
   d="M4271.3,2950.9h-3865c-30.2,0-52.2-24.7-52.2-52.2v-43.9c0-30.2,24.7-52.2,52.2-52.2h3865  c30.2,0,52.2,24.7,52.2,52.2v43.9C4326.2,2926.2,4301.5,2950.9,4271.3,2950.9z"
   id="path44" />
















































<path
   class="st4"
   d="M1185.9,650.6H746.6c-22,0-38.4,16.5-38.4,38.4v203.1c-30.2,35.7-71.4,41.2-96.1,41.2  c41.2,16.5,74.1,24.7,96.1,30.2v41.2c0,22,16.5,38.4,38.4,38.4h439.2c22,0,38.4-16.5,38.4-38.4V686.3  C1224.3,667,1207.8,650.6,1185.9,650.6z"
   id="path88"
   style="fill:#615fff;fill-opacity:1" />
<path
   class="st6"
   d="M927.8,749.4h-151c-8.2,0-13.7-5.5-13.7-13.7V711c0-8.2,5.5-13.7,13.7-13.7h151c8.2,0,13.7,5.5,13.7,13.7v24.7  C941.5,743.9,936.1,749.4,927.8,749.4z"
   id="path89" />
<path
   class="st6"
   d="M1081.5,864.7h-302c-8.2,0-13.7-5.5-13.7-13.7v-24.7c0-8.2,5.5-13.7,13.7-13.7h304.7c8.2,0,13.7,5.5,13.7,13.7  V851C1095.3,859.2,1089.8,864.7,1081.5,864.7z"
   id="path90" />
<path
   class="st6"
   d="M1081.5,982.7h-302c-8.2,0-13.7-5.5-13.7-13.7v-24.7c0-8.2,5.5-13.7,13.7-13.7h304.7c8.2,0,13.7,5.5,13.7,13.7  V969C1095.3,974.5,1089.8,982.7,1081.5,982.7z"
   id="path91" />
<path
   class="st23"
   d="M1021.2,878.4h285.5c13.7,0,24.7,11,24.7,24.7v131.8c19.2,22,46.7,27.5,63.1,27.5  c-27.5,11-49.4,16.5-63.1,19.2v27.5c0,13.7-11,24.7-24.7,24.7h-285.5c-13.7,0-24.7-11-24.7-24.7V903.1  C996.4,889.4,1007.4,878.4,1021.2,878.4z"
   id="path92" />
<path
   class="st21"
   d="M1098,1007.4c0,13.7-11,24.7-24.7,24.7c-13.7,0-24.7-11-24.7-24.7s11-24.7,24.7-24.7  C1087,982.7,1098,993.7,1098,1007.4z"
   id="path93" />
<path
   class="st21"
   d="M1185.9,1007.4c0,13.7-11,24.7-24.7,24.7c-13.7,0-24.7-11-24.7-24.7s11-24.7,24.7-24.7  C1174.9,982.7,1185.9,993.7,1185.9,1007.4z"
   id="path94" />
<circle
   class="st21"
   cx="1249"
   cy="1007.4"
   r="24.7"
   id="circle94" />
<rect
   x="1685.5"
   y="1367"
   class="st4"
   width="107.1"
   height="428.2"
   id="rect94"
   style="fill:#615fff;fill-opacity:1" />
<rect
   x="1841.9"
   y="1454.9"
   class="st4"
   width="107.1"
   height="340.4"
   id="rect95"
   style="fill:#615fff;fill-opacity:1" />
<rect
   x="1995.6"
   y="1608.6"
   class="st4"
   width="107.1"
   height="183.9"
   id="rect96"
   style="fill:#615fff;fill-opacity:1" />
<rect
   x="2152.1"
   y="1298.4"
   class="st4"
   width="107.1"
   height="494.1"
   id="rect97"
   style="fill:#615fff;fill-opacity:1" />
<rect
   x="2305.8"
   y="1087"
   class="st4"
   width="107.1"
   height="708.2"
   id="rect98"
   style="fill:#615fff;fill-opacity:1" />
<rect
   x="2462.3"
   y="1317.6"
   class="st4"
   width="107.1"
   height="474.9"
   id="rect99"
   style="fill:#615fff;fill-opacity:1" />
<rect
   x="2618.8"
   y="1177.6"
   class="st4"
   width="107.1"
   height="617.6"
   id="rect100"
   style="fill:#615fff;fill-opacity:1" />
<rect
   x="2772.5"
   y="1427.4"
   class="st4"
   width="107.1"
   height="367.8"
   id="rect101"
   style="fill:#615fff;fill-opacity:1" />
<path
   class="st3"
   d="M3488.9,1773.3l79.6-85.1c96.1,96.1,115.3,247.1,43.9,367.8l-96.1-63.1  C3557.6,1921.5,3543.8,1830.9,3488.9,1773.3z"
   id="path101" />
<path
   class="st4"
   d="M3255.6,2053.3c82.4,54.9,192.2,32.9,249.8-43.9l96.1,63.1c-93.3,131.8-274.5,167.4-411.8,76.9  c-104.3-68.6-153.7-194.9-129-310.2l112.5,27.5C3162.3,1938,3192.5,2012.1,3255.6,2053.3z"
   id="path102"
   style="fill:#615fff;fill-opacity:1" />
<path
   class="st22"
   d="M3354.4,1715.6c-60.4,0-118,30.2-153.7,82.4c-11,16.5-16.5,30.2-22,49.4l-112.5-27.5  c8.2-30.2,22-57.6,38.4-85.1c60.4-90.6,159.2-137.3,258-134.5L3354.4,1715.6z"
   id="path103" />
<path
   class="st4"
   d="M3376.4,1715.6l5.5-115.3c46.7,5.5,93.3,19.2,137.3,49.4c11,8.2,22,16.5,32.9,24.7l-79.6,85.1  c-5.5-5.5-11-8.2-16.5-13.7C3431.3,1729.4,3403.8,1721.1,3376.4,1715.6z"
   id="path104"
   style="fill:#615fff;fill-opacity:1" />
<path
   class="st24"
   d="M2868.6,1951.7H1707.4c-13.7,0-24.7-11-24.7-24.7c0-13.7,11-24.7,24.7-24.7h1161.1c13.7,0,24.7,11,24.7,24.7  C2893.3,1940.7,2882.3,1951.7,2868.6,1951.7z"
   id="path105" />
<path
   class="st24"
   d="M2868.6,2064.3H1707.4c-13.7,0-24.7-11-24.7-24.7s11-24.7,24.7-24.7h1161.1c13.7,0,24.7,11,24.7,24.7  S2882.3,2064.3,2868.6,2064.3z"
   id="path106" />
<path
   class="st24"
   d="M2868.6,2176.8H1707.4c-13.7,0-24.7-11-24.7-24.7s11-24.7,24.7-24.7h1161.1c13.7,0,24.7,11,24.7,24.7  S2882.3,2176.8,2868.6,2176.8z"
   id="path107" />























</svg>
